<svg width="104" height="32" viewBox="0 0 104 32" fill="none" xmlns="http://www.w3.org/2000/svg">
<path d="M26.8561 3.04155C26.8561 4.45041 24.8758 4.16518 24.6708 6.98721C24.5879 7.7435 24.5661 11.7497 24.5661 15.5527C24.5661 20.0083 24.6271 24.7924 24.7929 25.8944C25.0808 27.9386 27 27.796 27 29.0406C27 29.5506 26.5464 30 25.5344 30C24.5443 30 23.1005 29.8963 21.9664 29.8963C20.7494 29.8963 19.2838 30 18.3155 30C17.2643 30 16.8499 29.5506 16.8499 29.0406C16.8499 27.7916 18.791 27.917 19.0788 25.8944C19.1617 25.2592 19.3057 20.9289 19.3057 18.1673C19.3057 17.0826 19.0178 16.6547 18.1105 16.6547H8.91131C8.08692 16.6547 7.67254 16.94 7.67254 18.1673C7.67254 21.0066 7.81648 25.1554 7.94297 25.8944C8.23086 27.9386 10.1501 27.796 10.1501 29.0406C10.1501 29.5506 9.69645 30 8.68449 30C7.69435 30 6.25057 29.8963 5.11648 29.8963C3.89952 29.8963 2.45573 30 1.46559 30C0.414378 30 0 29.5506 0 29.0406C0 27.7916 1.94103 27.917 2.22892 25.8944C2.37286 24.8918 2.43393 18.9668 2.43393 15.5527C2.43393 13.1412 2.43393 7.78672 2.37286 6.98721C2.14604 4.20839 0.126494 4.43312 0.126494 3.04155C0.126494 2.48838 0.414378 2.00003 1.4874 2.00003C2.47754 2.00003 3.94313 2.10375 5.11648 2.10375C6.29418 2.10375 7.73796 2.00003 8.68449 2.00003C9.69645 2.00003 10.0061 2.47109 10.0061 3.04155C10.0061 4.2689 8.45767 4.20839 7.98223 5.98459C7.81648 6.43404 7.67254 9.86543 7.67254 11.767C7.67254 13.1153 8.00404 13.4827 8.93312 13.4827H18.0276C18.9131 13.4827 19.3057 13.1758 19.3057 11.767C19.3057 9.70121 19.1399 6.35193 19.0178 5.98459C18.647 4.36829 16.9764 4.20839 16.9764 3.04155C16.9764 2.48838 17.2643 2.00003 18.3373 2.00003C19.3275 2.00003 20.7931 2.10375 21.9664 2.10375C23.1441 2.10375 24.5879 2.00003 25.5344 2.00003C26.5464 1.99571 26.8561 2.46677 26.8561 3.04155Z" fill="white"/>
<path d="M33.3192 18.0079C33.3192 19.7476 33.5871 22.0335 34.5007 23.8325C35.6647 26.076 37.5315 26.9734 39.2357 26.9734C41.6647 26.9734 43.8873 25.2929 43.8873 21.208C43.8873 19.1084 43.325 16.6829 42.4334 14.9601C41.2299 12.7166 39.5037 11.616 37.8038 11.616C35.3748 11.6245 33.3192 13.6267 33.3192 18.0079ZM38.2606 9C43.9312 9 49 12.9833 49 20.0101C49 26.6771 44.265 30 38.5329 30C32.1157 30 28 25.6569 28 19.6503C28 13.3642 32.3221 9 38.2606 9Z" fill="white"/>
<path d="M63.4702 24.5552C62.7815 26.2562 62.2781 27.7061 61.3422 28.8141C60.777 29.4676 59.4216 30 58.5033 30C57.3113 30 57.0817 29.3681 56.5386 28.0134L52.0088 17.0243C51.1523 14.9555 50.128 12.5404 49.0419 11.6618C48.521 11.19 48 10.7832 48 10.0647C48 9.42848 48.4194 9 49.2318 9C50.2737 9 51.1523 9.10387 52.2163 9.10387C53.2406 9.10387 54.6358 9 55.7219 9C56.5386 9 57.0773 9.18611 57.0773 10.1686C57.0773 10.8827 55.8455 11.3372 55.8455 12.5014C55.8455 13.2805 56.2208 14.4664 57.7881 18.3963C59.1656 21.8545 60.0441 24.1051 60.3355 24.1051C60.7329 24.1051 61.6909 21.465 62.9448 17.5956C64.0088 14.4231 64.1545 13.4796 64.1545 12.9083C64.1545 11.2723 62.5651 11.0256 62.5651 10.0431C62.5651 9.36789 63.0243 9 63.6291 9C64.4238 9 65.8013 9.10387 66.5121 9.10387C67.3466 9.10387 68.3709 9 68.936 9C69.7925 9 70 9.42848 70 9.94353C70 11.2549 68.6843 10.965 67.4525 14.0769C66.1854 17.1239 63.8057 23.7156 63.4702 24.5552Z" fill="white"/>
<path d="M96.3585 20.1761C94.6609 20.1761 93.2959 20.3362 92.1296 20.6943C89.9654 21.3894 89.0022 22.7838 89.0022 24.1992C89.0022 25.8506 90.2678 26.811 92.0259 26.811C94.8035 26.811 96.743 24.7805 96.743 21.7306C96.7473 20.5342 96.6263 20.1761 96.3585 20.1761ZM96.2981 17.6233C96.5227 17.4632 96.7257 17.1472 96.7257 15.8919C96.7257 13.3222 95.6242 11.2495 92.9244 11.2495C90.7387 11.2495 89.7192 12.8841 89.27 14.7165C89.0238 15.6939 88.6177 16.33 87.4946 16.33C86.3499 16.33 85.0842 15.5338 85.0842 13.7813C85.0842 11.4897 87.9827 9 92.9892 9C98.2592 9 101.672 11.8477 101.672 17.0082C101.672 19.599 101.447 22.6658 101.447 24.4772C101.447 25.3535 101.732 26.1918 102.631 26.1918C103.123 26.1918 103.326 26.0317 103.633 26.0317C103.797 26.0317 104 26.2508 104 26.7099C104 28.4245 102.367 29.8189 100.324 29.8189C98.5875 29.8189 97.4428 29.1827 96.8294 27.7252C96.7473 27.5482 96.6264 27.3882 96.4838 27.3882C96.3413 27.3882 96.1771 27.6283 96.013 27.7884C94.6868 29.0437 92.4795 30 90.1512 30C86.6998 30 84 28.2265 84 25.0417C84 21.9159 86.3283 19.8812 89.9438 18.8239C92.6004 18.0824 95.8099 17.9645 96.2981 17.6233Z" fill="white"/>
<path d="M79.6122 17.1182V25.0389C79.6122 26.4391 80.0056 27.0104 80.6627 27.5388C81.2735 28.0671 82 28.1874 82 28.982C82 29.5705 81.6483 30 80.4683 30C79.2883 30 78.3026 29.8969 77.0995 29.8969C75.7436 29.8969 75.1745 30 73.3559 30C72.3054 30 72 29.5533 72 29.0464C72 28.2733 72.7635 27.9296 73.18 27.6032C74.2536 26.7098 74.4294 25.8378 74.4294 24.7983V15.0908C74.4294 13.974 73.7955 13.3641 73.0088 13.0591C72.5507 12.8143 72.0463 12.5308 72.0463 12.0239C72.0463 11.0704 73.1846 10.9888 74.6053 10.4604C76.6645 9.68726 77.8445 9 78.5895 9C79.4225 9 79.839 9.38658 79.839 10.2585C79.8343 11.3066 79.6122 13.1364 79.6122 17.1182Z" fill="white"/>
<path d="M76.79 0.0304652C77.9909 -0.103035 79.2283 0.200374 80.0608 0.977103C80.8841 1.74574 81.1298 2.85824 80.9387 3.91006C80.7568 4.92952 80.0744 5.81143 79.0873 6.36566C78.0728 6.93607 76.8582 7.17879 75.721 6.85516C74.52 6.51534 73.4647 5.7467 73.1099 4.67061C72.7641 3.62688 73.2827 2.54674 73.9924 1.65269C74.6702 0.803148 75.63 0.15992 76.79 0.0304652Z" fill="white"/>
</svg>
