<svg width="32" height="32" viewBox="0 0 32 32" fill="none" xmlns="http://www.w3.org/2000/svg">
<path d="M31 16C31 24.2843 24.2843 31 16 31C7.71573 31 1 24.2843 1 16C1 7.71573 7.71573 1 16 1C24.2843 1 31 7.71573 31 16Z" stroke="white" stroke-width="2"/>
<path fill-rule="evenodd" clip-rule="evenodd" d="M12.6337 7H19.3942C22.5051 7 25.0279 9.51887 25.0279 12.625V19.375C25.0279 22.4811 22.5051 25 19.3942 25H12.6337C9.52278 25 7 22.4811 7 19.375V12.625C7 9.51887 9.52278 7 12.6337 7ZM19.3942 23.3125C21.5688 23.3125 23.3378 21.5463 23.3378 19.375V12.625C23.3378 10.4537 21.5688 8.6875 19.3942 8.6875H12.6337C10.4591 8.6875 8.69011 10.4537 8.69011 12.625V19.375C8.69011 21.5463 10.4591 23.3125 12.6337 23.3125H19.3942Z" fill="white"/>
<path fill-rule="evenodd" clip-rule="evenodd" d="M11.3853 16C11.3853 13.4477 13.4578 11.3784 16.014 11.3784C18.5703 11.3784 20.6428 13.4477 20.6428 16C20.6428 18.5523 18.5703 20.6217 16.014 20.6217C13.4578 20.6217 11.3853 18.5523 11.3853 16ZM13.121 16C13.121 17.5922 14.4194 18.8886 16.014 18.8886C17.6087 18.8886 18.907 17.5922 18.907 16C18.907 14.4067 17.6087 13.1115 16.014 13.1115C14.4194 13.1115 13.121 14.4067 13.121 16Z" fill="white"/>
<path d="M20.8861 12.3515C21.2898 12.3515 21.617 12.0248 21.617 11.6218C21.617 11.2188 21.2898 10.8921 20.8861 10.8921C20.4825 10.8921 20.1553 11.2188 20.1553 11.6218C20.1553 12.0248 20.4825 12.3515 20.8861 12.3515Z" fill="white"/>
</svg>
