<svg width="32" height="32" viewBox="0 0 32 32" fill="none" xmlns="http://www.w3.org/2000/svg">
<path d="M31 16C31 24.2843 24.2843 31 16 31C7.71573 31 1 24.2843 1 16C1 7.71573 7.71573 1 16 1C24.2843 1 31 7.71573 31 16Z" stroke="white" stroke-width="2"/>
<path d="M10.7976 26.4058L10.7979 26.4083C10.8177 26.552 10.9319 26.65 11.0717 26.65C11.1485 26.65 11.2326 26.6205 11.3199 26.5063L11.321 26.5048C11.8268 25.8497 13.0217 24.18 13.4678 22.5382L10.7976 26.4058ZM10.7976 26.4058L10.7901 26.3541C10.642 25.3246 10.4583 23.3875 10.8372 21.7652L10.8373 21.7649M10.7976 26.4058L10.8373 21.7649M10.8373 21.7649L12.333 15.333L12.3578 15.2264M10.8373 21.7649L12.3578 15.2264M12.3578 15.2264L12.3175 15.1247M12.3578 15.2264L12.3175 15.1247M12.3175 15.1247C12.2055 14.8424 11.9861 14.1731 11.9861 13.2965C11.9861 11.3753 13.1255 10.0396 14.4034 10.0396C14.9336 10.0396 15.3562 10.2336 15.649 10.5567C15.9445 10.8828 16.131 11.367 16.131 11.9821C16.131 12.6954 15.8604 13.5973 15.546 14.6308L15.5459 14.631M12.3175 15.1247L15.5459 14.631M15.5459 14.631L15.5345 14.6686C15.373 15.2007 15.2026 15.762 15.0763 16.3022L15.0762 16.3026M15.5459 14.631L15.0762 16.3026M15.0762 16.3026C14.9518 16.8374 15.05 17.3714 15.3765 17.7901L15.3765 17.7902M15.0762 16.3026L15.3765 17.7902M15.3765 17.7902C15.7215 18.2324 16.2613 18.4722 16.8398 18.4722C17.9483 18.4722 18.8698 17.6929 19.4947 16.5687C20.1246 15.4359 20.4971 13.8871 20.4971 12.1727C20.4971 10.8098 20.0376 9.67219 19.1792 8.87747C18.3241 8.08563 17.1098 7.66799 15.66 7.66799C11.9303 7.66799 9.91388 10.5954 9.91388 13.3304C9.91388 14.2516 10.1469 14.9913 10.6696 15.6153C10.7999 15.7728 10.8623 15.8782 10.8904 15.9782C10.9168 16.0723 10.9227 16.1974 10.8671 16.4081L10.8669 16.4088M15.3765 17.7902L10.8669 16.4088M10.8669 16.4088C10.8342 16.5336 10.7801 16.7498 10.7298 16.9543C10.7297 16.9545 10.7297 16.9548 10.7296 16.955L10.6231 17.3793C10.623 17.3795 10.623 17.3797 10.6229 17.38C10.5309 17.7377 10.1962 17.903 9.86795 17.7663L9.86712 17.766M10.8669 16.4088L9.86712 17.766M9.86712 17.766C8.33156 17.131 7.35 15.4041 7.35 13.0292C7.34986 9.28224 10.5482 5.35 15.9858 5.35C20.8046 5.35 23.65 8.9527 23.65 12.4029C23.65 17.3691 20.8315 20.8146 17.1001 20.8146C16.1825 20.8146 15.2653 20.466 14.6488 19.9347L14.2184 19.5638M9.86712 17.766L14.2184 19.5638M14.2184 19.5638L14.0808 20.1151M14.2184 19.5638L14.0808 20.1151M14.0808 20.1151C13.8642 20.9828 13.5596 22.1982 13.4678 22.5382L14.0808 20.1151Z" fill="white" stroke="#1D1D1B" stroke-width="0.7"/>
</svg>
