<svg width="40" height="24" viewBox="0 0 40 24" fill="none" xmlns="http://www.w3.org/2000/svg">
<path d="M0 3C0 1.34315 1.49238 0 3.33333 0H36.6667C38.5076 0 40 1.34315 40 3V21C40 22.6569 38.5076 24 36.6667 24H3.33333C1.49238 24 0 22.6569 0 21V3Z" fill="#0079AA"/>
<path d="M28.305 7.40307L27.5891 8.93861H29.0248L28.305 7.40307ZM20.0439 8.35462C20.1788 8.2923 20.2583 8.15675 20.2583 7.98842C20.2583 7.82347 20.1748 7.70401 20.0399 7.64787C19.917 7.58564 19.7279 7.57845 19.5466 7.57845H18.2658V8.43402H19.5294C19.7318 8.43407 19.9009 8.43144 20.0439 8.35462ZM3.63213 7.40307L2.92433 8.93861H4.34421L3.63213 7.40307ZM36.5866 17.2402H34.5779V16.4141H36.5785C36.7768 16.4141 36.9157 16.391 36.9993 16.3186C37.0784 16.2541 37.1231 16.1628 37.1223 16.0674C37.1223 15.9551 37.0719 15.866 36.9951 15.8127C36.9198 15.7538 36.8098 15.7271 36.6286 15.7271C35.652 15.6977 34.4336 15.7538 34.4336 14.5346C34.4336 13.9758 34.8345 13.3876 35.926 13.3876H37.9979V12.6211H36.0729C35.492 12.6211 35.0699 12.7442 34.7711 12.9358V12.6211H31.9238C31.4686 12.6211 30.9342 12.7209 30.6814 12.9358V12.6211H25.5967V12.9358C25.1921 12.6773 24.5092 12.6211 24.1942 12.6211H20.8403V12.9358C20.5203 12.6613 19.8082 12.6211 19.3744 12.6211H15.6209L14.7621 13.4438L13.9576 12.6211H8.35054V17.9974H13.8518L14.7367 17.1614L15.5704 17.9974L18.9614 18V16.7353H19.2949C19.7448 16.7417 20.2754 16.7255 20.7437 16.5464V17.9972H23.5407V16.5959H23.6756C23.8477 16.5959 23.8648 16.6023 23.8648 16.7546V17.9969H32.3617C32.9011 17.9969 33.4651 17.8748 33.7773 17.6527V17.9969H36.4725C37.0333 17.9969 37.581 17.9273 37.9978 17.7492V16.7476C37.7452 17.0747 37.2527 17.2404 36.5865 17.2404L36.5866 17.2402ZM19.3394 15.9708H18.0416V17.2631H16.0199L14.7391 15.9877L13.4081 17.2631H9.28804V13.4103H13.4715L14.7512 14.6732L16.0742 13.4103H19.3978C20.2232 13.4103 21.1507 13.6127 21.1507 14.6796C21.1507 15.7499 20.2486 15.9708 19.3394 15.9708ZM25.5803 15.7961C25.7272 15.9841 25.7484 16.1597 25.7526 16.4993V17.2631H24.7083V16.7811C24.7083 16.5493 24.7335 16.2061 24.5401 16.027C24.3884 15.889 24.1566 15.856 23.777 15.856H22.6654V17.2631H21.6204V13.4104H24.0216C24.5484 13.4104 24.9318 13.4311 25.2732 13.5921C25.6015 13.7677 25.808 14.0082 25.808 14.4477C25.8079 15.0626 25.3446 15.3763 25.0708 15.4727C25.3022 15.5483 25.4914 15.6839 25.5803 15.7961ZM29.8769 14.2071H27.4412V14.9075H29.8173V15.6936H27.4412V16.4602L29.8769 16.4636V17.2631H26.4053V13.4103H29.8769V14.2071ZM32.5496 17.263H30.5238V16.4368H32.5416C32.7389 16.4368 32.8788 16.4137 32.9665 16.3414C33.038 16.2818 33.0894 16.1952 33.0894 16.0903C33.0894 15.9779 33.0337 15.8888 32.9624 15.8353C32.8828 15.7766 32.773 15.75 32.592 15.75C31.6193 15.7205 30.4011 15.7765 30.4011 14.5574C30.4011 13.9986 30.7978 13.4104 31.8882 13.4104H33.9736V14.2303H32.0654C31.8763 14.2303 31.7533 14.2367 31.6488 14.3C31.5347 14.3624 31.4925 14.455 31.4925 14.5771C31.4925 14.7224 31.5892 14.8214 31.72 14.8641C31.8298 14.8979 31.9476 14.9077 32.1248 14.9077L32.6848 14.9213C33.2492 14.9332 33.637 15.0199 33.8726 15.231C34.075 15.4165 34.1837 15.6508 34.1837 16.0472C34.1837 16.8761 33.5986 17.263 32.5496 17.263ZM24.4825 14.2693C24.3569 14.2032 24.1714 14.1997 23.9863 14.1997H22.7054V15.0649H23.9692C24.1715 15.0649 24.3435 15.0586 24.4825 14.9855C24.6173 14.9134 24.698 14.7805 24.698 14.6157C24.698 14.451 24.6173 14.3317 24.4825 14.2693ZM36.1041 14.1996C35.9149 14.1996 35.7891 14.2059 35.6832 14.2692C35.5734 14.3317 35.5313 14.4242 35.5313 14.5464C35.5313 14.6916 35.6239 14.7906 35.7587 14.8334C35.8685 14.8672 35.9862 14.8771 36.1594 14.8771L36.7233 14.8903C37.2921 14.9028 37.672 14.9895 37.9035 15.2006C37.9457 15.2299 37.971 15.2628 38 15.2959V14.1997H36.1042L36.1041 14.1996ZM19.3755 14.1996H18.0192V15.1809H19.3634C19.763 15.1809 20.0115 15.0053 20.0117 14.672C20.0115 14.3351 19.751 14.1996 19.3755 14.1996ZM10.324 14.1996V14.9001H12.6074V15.6862H10.324V16.4527H12.8813L14.0694 15.3224L12.9318 14.1996H10.324ZM17.0017 16.8938V13.805L15.4048 15.3246L17.0017 16.8938ZM10.4113 10.7081V11.3719H19.1013L19.0972 9.96756H19.2654C19.3832 9.97119 19.4174 9.98079 19.4174 10.1529V11.372H23.912V11.045C24.2745 11.217 24.8383 11.372 25.5803 11.372H27.4711L27.8758 10.5165H28.7729L29.1687 11.372H32.8123V10.5593L33.364 11.3719H36.284V6H33.3943V6.63444L32.9897 6H30.0246V6.63444L29.653 6H25.6477C24.9772 6 24.388 6.08283 23.9119 6.31369V6H21.1479V6.31369C20.8449 6.07573 20.4321 6 19.9733 6H9.87535L9.19786 7.38755L8.50206 6H5.32155V6.63444L4.97208 6H2.25964L1.00005 8.55423V10.5973L2.86261 6.74549H4.40806L6.17698 10.3924V6.74549H7.8747L9.2359 9.35849L10.4864 6.74549H12.2182V10.5973H11.1521L11.1482 7.58064L9.63988 10.5973H8.72662L7.21447 7.57797V10.5973H5.09879L4.69913 9.73818H2.53345L2.12966 10.5973H1V11.3722H2.77727L3.17797 10.5167H4.07519L4.47485 11.3722H7.97157V10.7181L8.28366 11.375H10.0989L10.411 10.7082L10.4113 10.7081ZM24.1049 7.19447C24.441 6.88704 24.9677 6.74527 25.6845 6.74527H26.6914V7.57061H25.7056C25.3262 7.57061 25.1116 7.62057 24.9053 7.79884C24.7279 7.96099 24.6062 8.26758 24.6062 8.67129C24.6062 9.08398 24.699 9.3815 24.8922 9.57586C25.0523 9.72828 25.3434 9.77451 25.6172 9.77451H26.0845L27.5504 6.7454H29.1088L30.8698 10.3887V6.74545H32.4536L34.2819 9.42804V6.74545H35.3474V10.5972H33.8734L31.9018 7.7062V10.5972H29.7835L29.3788 9.73801H27.218L26.8253 10.5972H25.6081C25.1026 10.5972 24.4624 10.4982 24.0999 10.1711C23.7343 9.8441 23.5443 9.40109 23.5443 8.70069C23.5441 8.12936 23.6576 7.60716 24.1049 7.19447ZM21.9655 6.74531H23.0267V10.5972H21.9655V6.74531ZM17.1805 6.74531H19.5728C20.1043 6.74531 20.4962 6.7578 20.8324 6.92981C21.1615 7.10187 21.3587 7.35306 21.3587 7.78263C21.3587 8.39682 20.8956 8.71406 20.6259 8.80938C20.8534 8.88607 21.0479 9.02153 21.1406 9.13372C21.2874 9.32532 21.3127 9.49645 21.3127 9.84042V10.5971H20.2637L20.2597 10.1114C20.2597 9.87956 20.2848 9.54623 20.0955 9.36103C19.9436 9.22562 19.7119 9.19612 19.3374 9.19612H18.2208V10.5972H17.1806L17.1805 6.74531ZM12.9874 6.74531H16.4621V7.54742H14.0277V8.24173H16.4037V9.0313H14.0277V9.80054H16.4621V10.5971H12.9874V6.74531Z" fill="white"/>
</svg>
