<svg width="40" height="24" viewBox="0 0 40 24" fill="none" xmlns="http://www.w3.org/2000/svg">
<path d="M0 3C0 1.34315 1.49238 0 3.33333 0H36.6667C38.5076 0 40 1.34315 40 3V21C40 22.6569 38.5076 24 36.6667 24H3.33333C1.49238 24 0 22.6569 0 21V3Z" fill="white"/>
<path d="M34.4253 7.52588H32.3298C31.6962 7.52588 31.2089 7.70132 30.9165 8.27149L26.9204 16.4732H29.7469C29.7469 16.4732 30.2343 15.3768 30.3317 15.1136C30.6241 15.1136 33.4019 15.1136 33.7918 15.1136C33.8892 15.4206 34.1329 16.4294 34.1329 16.4294H36.667L34.4253 7.52588ZM31.1114 13.2715C31.3551 12.7452 32.1836 10.7715 32.1836 10.7715C32.1836 10.8154 32.4272 10.2452 32.5247 9.93816L32.7196 10.7276C32.7196 10.7276 33.2557 12.8768 33.3532 13.3154H31.1114V13.2715Z" fill="#3362AB"/>
<path d="M27.1152 13.5349C27.1152 15.377 25.2634 16.6051 22.3881 16.6051C21.1698 16.6051 20.0002 16.3858 19.3667 16.1226L19.7566 14.1051L20.0977 14.2366C20.9749 14.5875 21.5597 14.7191 22.6318 14.7191C23.4115 14.7191 24.24 14.4559 24.24 13.8419C24.24 13.4472 23.8989 13.184 22.8267 12.7454C21.8033 12.3068 20.4388 11.6051 20.4388 10.3331C20.4388 8.57874 22.3394 7.39453 25.0197 7.39453C26.0431 7.39453 26.9203 7.56997 27.4564 7.78927L27.0665 9.71909L26.8716 9.54365C26.3842 9.36822 25.7507 9.19278 24.8248 9.19278C23.8014 9.23664 23.3141 9.63137 23.3141 9.98225C23.3141 10.377 23.8989 10.684 24.8248 11.0787C26.3842 11.7366 27.1152 12.4823 27.1152 13.5349Z" fill="#3362AB"/>
<path d="M3.3335 7.61392L3.38223 7.43848H7.57326C8.15806 7.43848 8.59665 7.61392 8.74285 8.18409L9.66878 12.1315C8.74285 10.0262 6.5986 8.31567 3.3335 7.61392Z" fill="#F9B50B"/>
<path d="M15.5653 7.52628L11.3256 16.4298H8.45032L6.01367 8.97365C7.76806 9.98242 9.23005 11.5614 9.76611 12.6579L10.0585 13.5789L12.6901 7.48242H15.5653V7.52628Z" fill="#3362AB"/>
<path d="M16.6861 7.48242H19.3664L17.6608 16.4298H14.9805L16.6861 7.48242Z" fill="#3362AB"/>
</svg>
