<svg width="16" height="11" viewBox="0 0 16 11" fill="none" xmlns="http://www.w3.org/2000/svg">
<path d="M0.666504 0.333252V8.99992H1.99984C1.99984 10.1046 2.89517 10.9999 3.99984 10.9999C5.1045 10.9999 5.99984 10.1046 5.99984 8.99992H9.99984C9.99984 10.1046 10.8952 10.9999 11.9998 10.9999C13.1045 10.9999 13.9998 10.1046 13.9998 8.99992H15.3332V5.66659L13.7017 2.40356C13.4757 1.95156 13.0143 1.66659 12.509 1.66659H10.6665V0.333252H0.666504ZM1.99984 1.66659H9.33317V7.66659H5.48031C5.11426 7.26036 4.58978 6.99992 3.99984 6.99992C3.40989 6.99992 2.88542 7.26036 2.51937 7.66659H1.99984V1.66659ZM7.02848 2.69393L5.33317 4.39054L4.33838 3.39575L3.39567 4.33846L5.33317 6.27596L7.97249 3.63794L7.02848 2.69393ZM10.6665 2.99992H12.509L13.9998 5.98169V7.66659H13.4803C13.1143 7.26036 12.5898 6.99992 11.9998 6.99992C11.4851 6.99992 11.0209 7.20007 10.6665 7.51945V2.99992ZM3.99984 8.16659C4.45917 8.16659 4.83317 8.54059 4.83317 8.99992C4.83317 9.45925 4.45917 9.83325 3.99984 9.83325C3.5405 9.83325 3.1665 9.45925 3.1665 8.99992C3.1665 8.54059 3.5405 8.16659 3.99984 8.16659ZM11.9998 8.16659C12.4592 8.16659 12.8332 8.54059 12.8332 8.99992C12.8332 9.45925 12.4592 9.83325 11.9998 9.83325C11.5405 9.83325 11.1665 9.45925 11.1665 8.99992C11.1665 8.54059 11.5405 8.16659 11.9998 8.16659Z" fill="white"/>
</svg>
