<svg width="231" height="16" viewBox="0 0 231 16" fill="none" xmlns="http://www.w3.org/2000/svg">
<path d="M167.311 11.3945L171.658 5.16602H172.461V10.3691H173.586V11.3945H172.461V13H171.395V11.3945H167.311ZM169.15 10.3691H171.395V7.10547L169.15 10.3691ZM175.145 12.918C174.996 12.7734 174.922 12.5938 174.922 12.3789C174.922 12.1602 174.996 11.9785 175.145 11.834C175.293 11.6895 175.477 11.6172 175.695 11.6172C175.918 11.6172 176.104 11.6895 176.252 11.834C176.412 11.9785 176.492 12.1602 176.492 12.3789C176.492 12.5938 176.412 12.7734 176.252 12.918C176.104 13.0547 175.918 13.123 175.695 13.123C175.477 13.123 175.293 13.0547 175.145 12.918ZM178.021 7.5625C178.057 6.85938 178.328 6.25977 178.836 5.76367C179.34 5.27148 179.943 5.04297 180.646 5.07812C181.346 5.10938 181.92 5.36523 182.369 5.8457C182.818 6.32227 183.076 6.96289 183.143 7.76758C183.213 8.75586 183.17 9.74414 183.014 10.7324C182.896 11.4551 182.592 12.0391 182.1 12.4844C181.619 12.9297 181.027 13.1406 180.324 13.1172C179.797 13.0938 179.348 12.9668 178.977 12.7363C178.609 12.502 178.311 12.125 178.08 11.6055L179.041 11.2012C179.342 11.7988 179.785 12.0977 180.371 12.0977C180.918 12.0977 181.352 11.8418 181.672 11.3301C181.996 10.8105 182.123 10.1543 182.053 9.36133C181.822 9.95508 181.287 10.252 180.447 10.252C179.744 10.252 179.16 9.98438 178.695 9.44922C178.223 8.90625 177.998 8.27734 178.021 7.5625ZM179.088 7.60938C179.068 8.03516 179.191 8.39844 179.457 8.69922C179.727 9 180.068 9.1582 180.482 9.17383C180.904 9.18555 181.268 9.05664 181.572 8.78711C181.889 8.50586 182.053 8.1543 182.064 7.73242C182.064 7.30664 181.92 6.94336 181.631 6.64258C181.354 6.3418 181.01 6.18555 180.6 6.17383C180.193 6.16211 179.842 6.29297 179.545 6.56641C179.252 6.84766 179.1 7.19531 179.088 7.60938ZM187.602 10.1816C187.602 9.31836 187.883 8.61719 188.445 8.07812C189.004 7.54297 189.699 7.27539 190.531 7.27539C191.363 7.27539 192.059 7.54297 192.617 8.07812C193.188 8.625 193.473 9.32617 193.473 10.1816C193.473 11.041 193.184 11.748 192.605 12.3027C192.039 12.8457 191.348 13.1172 190.531 13.1172C189.715 13.1172 189.023 12.8457 188.457 12.3027C187.887 11.7559 187.602 11.0488 187.602 10.1816ZM188.68 10.1816C188.68 10.7363 188.857 11.1914 189.213 11.5469C189.568 11.8906 190.008 12.0625 190.531 12.0625C191.059 12.0625 191.494 11.8906 191.838 11.5469C192.197 11.1992 192.377 10.7441 192.377 10.1816C192.377 9.62695 192.197 9.18164 191.838 8.8457C191.49 8.50977 191.055 8.3418 190.531 8.3418C190.012 8.3418 189.572 8.50977 189.213 8.8457C188.857 9.18945 188.68 9.63477 188.68 10.1816ZM194.861 10.6387V7.39844H195.957V10.5625C195.957 11.0273 196.064 11.3926 196.279 11.6582C196.498 11.9199 196.799 12.0508 197.182 12.0508C197.654 12.0508 198.035 11.9141 198.324 11.6406C198.617 11.3633 198.764 10.957 198.764 10.4219V7.39844H199.854V13H198.764V12.1621C198.607 12.4629 198.367 12.6973 198.043 12.8652C197.723 13.0332 197.383 13.1172 197.023 13.1172C196.328 13.1172 195.793 12.9023 195.418 12.4727C195.047 12.0508 194.861 11.4551 194.861 10.6855C194.861 10.6699 194.861 10.6543 194.861 10.6387ZM201.072 8.31836V7.39844H202.08V5.2832H203.176V7.39844H204.359V8.31836H203.176V13H202.08V8.31836H201.072ZM208.109 10.1816C208.109 9.31836 208.391 8.61719 208.953 8.07812C209.512 7.54297 210.207 7.27539 211.039 7.27539C211.871 7.27539 212.566 7.54297 213.125 8.07812C213.695 8.625 213.98 9.32617 213.98 10.1816C213.98 11.041 213.691 11.748 213.113 12.3027C212.547 12.8457 211.855 13.1172 211.039 13.1172C210.223 13.1172 209.531 12.8457 208.965 12.3027C208.395 11.7559 208.109 11.0488 208.109 10.1816ZM209.188 10.1816C209.188 10.7363 209.365 11.1914 209.721 11.5469C210.076 11.8906 210.516 12.0625 211.039 12.0625C211.566 12.0625 212.002 11.8906 212.346 11.5469C212.705 11.1992 212.885 10.7441 212.885 10.1816C212.885 9.62695 212.705 9.18164 212.346 8.8457C211.998 8.50977 211.562 8.3418 211.039 8.3418C210.52 8.3418 210.08 8.50977 209.721 8.8457C209.365 9.18945 209.188 9.63477 209.188 10.1816ZM214.771 8.31836V7.39844H215.855V6.83008C215.855 6.04102 216.035 5.42969 216.395 4.99609C216.754 4.5625 217.289 4.3457 218 4.3457H218.615V5.39453H218C217.305 5.39453 216.957 5.85742 216.957 6.7832C216.957 6.79883 216.957 6.81445 216.957 6.83008V7.39844H218.252V8.31836H216.957V13H215.855V8.31836H214.771ZM221.996 11.3301L222.922 10.8262C223.07 11.209 223.295 11.5137 223.596 11.7402C223.9 11.9629 224.236 12.0742 224.604 12.0742C225.213 12.0742 225.678 11.9316 225.998 11.6465C226.322 11.3574 226.484 10.9688 226.484 10.4805C226.484 10.0117 226.334 9.64453 226.033 9.37891C225.732 9.11328 225.344 8.98047 224.867 8.98047C224.531 8.98047 224.227 9.02734 223.953 9.12109C223.715 9.19141 223.371 9.36133 222.922 9.63086L222.248 9.07422L222.934 5.17773H227.111V6.20898H223.824L223.391 8.42969C223.566 8.30469 223.797 8.19727 224.082 8.10742C224.367 8.01758 224.629 7.97266 224.867 7.97266C225.617 7.97266 226.252 8.19727 226.771 8.64648C227.283 9.08789 227.539 9.69922 227.539 10.4805C227.539 11.2773 227.268 11.918 226.725 12.4023C226.189 12.8789 225.482 13.1172 224.604 13.1172C224.053 13.1172 223.539 12.9551 223.062 12.6309C222.59 12.3066 222.234 11.873 221.996 11.3301Z" fill="white"/>
<path d="M87.9375 0H76C74.8954 0 74 0.895431 74 2V14C74 15.1046 74.8954 16 76 16H87.9375C89.0421 16 89.9375 15.1046 89.9375 14V2C89.9375 0.895431 89.0421 0 87.9375 0Z" fill="#00B67A"/>
<path d="M105.203 0H93.2656C92.1611 0 91.2656 0.895431 91.2656 2V14C91.2656 15.1046 92.1611 16 93.2656 16H105.203C106.308 16 107.203 15.1046 107.203 14V2C107.203 0.895431 106.308 0 105.203 0Z" fill="#00B67A"/>
<path d="M122.469 0H110.531C109.427 0 108.531 0.895431 108.531 2V14C108.531 15.1046 109.427 16 110.531 16H122.469C123.573 16 124.469 15.1046 124.469 14V2C124.469 0.895431 123.573 0 122.469 0Z" fill="#00B67A"/>
<path d="M139.734 0H127.797C126.692 0 125.797 0.895431 125.797 2V14C125.797 15.1046 126.692 16 127.797 16H139.734C140.839 16 141.734 15.1046 141.734 14V2C141.734 0.895431 140.839 0 139.734 0Z" fill="#00B67A"/>
<path d="M157 0H145.062C143.958 0 143.062 0.895431 143.062 2V14C143.062 15.1046 143.958 16 145.062 16H157C158.105 16 159 15.1046 159 14V2C159 0.895431 158.105 0 157 0Z" fill="#00B67A"/>
<path d="M81.9688 10.7833L84.3926 10.1666L85.4053 13.2999L81.9688 10.7833ZM87.5469 6.73328H83.2803L81.9688 2.69995L80.6572 6.73328H76.3906L79.8438 9.23328L78.5322 13.2666L81.9854 10.7666L84.1104 9.23328L87.5469 6.73328Z" fill="white"/>
<path d="M99.2344 10.7833L101.658 10.1666L102.671 13.2999L99.2344 10.7833ZM104.812 6.73328H100.546L99.2344 2.69995L97.9229 6.73328H93.6562L97.1094 9.23328L95.7979 13.2666L99.251 10.7666L101.376 9.23328L104.812 6.73328Z" fill="white"/>
<path d="M116.5 10.7833L118.924 10.1666L119.937 13.2999L116.5 10.7833ZM122.078 6.73328H117.812L116.5 2.69995L115.188 6.73328H110.922L114.375 9.23328L113.063 13.2666L116.517 10.7666L118.642 9.23328L122.078 6.73328Z" fill="white"/>
<path d="M133.766 10.7833L136.189 10.1666L137.202 13.2999L133.766 10.7833ZM139.344 6.73328H135.077L133.766 2.69995L132.454 6.73328H128.188L131.641 9.23328L130.329 13.2666L133.782 10.7666L135.907 9.23328L139.344 6.73328Z" fill="white"/>
<path d="M151.031 10.7833L153.455 10.1666L154.468 13.2999L151.031 10.7833ZM156.609 6.73328H152.343L151.031 2.69995L149.72 6.73328H145.453L148.906 9.23328L147.595 13.2666L151.048 10.7666L153.173 9.23328L156.609 6.73328Z" fill="white"/>
<g clip-path="url(#clip0)">
<path d="M17.3447 5.67065H24.0274V6.90142H21.3998V13.8202H19.9549V6.90142H17.3389V5.67065H17.3447ZM23.7419 7.9194H24.9771V9.05815H25.0004C25.0412 8.89711 25.1169 8.74183 25.2276 8.59229C25.3383 8.44276 25.4723 8.29898 25.6297 8.1782C25.787 8.05168 25.9617 7.9539 26.154 7.87339C26.3463 7.79862 26.5444 7.75836 26.7425 7.75836C26.894 7.75836 27.0047 7.76411 27.0629 7.76986C27.1212 7.77562 27.1794 7.78712 27.2435 7.79287V9.04664C27.1503 9.02939 27.0571 9.01789 26.958 9.00638C26.859 8.99488 26.7658 8.98913 26.6726 8.98913C26.4512 8.98913 26.2414 9.03514 26.0433 9.12141C25.8452 9.20768 25.6763 9.33996 25.5306 9.50674C25.3849 9.67928 25.2684 9.88633 25.181 10.1394C25.0936 10.3924 25.0528 10.68 25.0528 11.0078V13.8144H23.7361V7.9194H23.7419ZM33.297 13.8202H32.0036V12.9978H31.9803C31.8172 13.2968 31.5783 13.5326 31.2578 13.7109C30.9374 13.8892 30.6111 13.9812 30.279 13.9812C29.4925 13.9812 28.9215 13.7914 28.5719 13.4061C28.2223 13.0208 28.0476 12.4399 28.0476 11.6635V7.9194H29.3643V11.5369C29.3643 12.0546 29.4633 12.4226 29.6673 12.6354C29.8653 12.8482 30.1508 12.9575 30.5121 12.9575C30.7917 12.9575 31.0189 12.9172 31.2054 12.831C31.3918 12.7447 31.5433 12.6354 31.654 12.4916C31.7705 12.3536 31.8521 12.1811 31.9045 11.9855C31.957 11.79 31.9803 11.5772 31.9803 11.3471V7.92515H33.297V13.8202ZM35.5401 11.928C35.5809 12.3076 35.7266 12.5722 35.9771 12.7274C36.2335 12.877 36.5364 12.9575 36.8918 12.9575C37.0142 12.9575 37.154 12.946 37.3113 12.9287C37.4686 12.9115 37.6201 12.8712 37.7541 12.8195C37.894 12.7677 38.0047 12.6872 38.0979 12.5837C38.1853 12.4801 38.226 12.3479 38.2202 12.1811C38.2144 12.0143 38.1503 11.8763 38.0338 11.7727C37.9173 11.6635 37.7716 11.5829 37.591 11.5139C37.4104 11.4507 37.2064 11.3932 36.9734 11.3471C36.7403 11.3011 36.5073 11.2494 36.2684 11.1976C36.0237 11.1459 35.7848 11.0768 35.5576 11.0021C35.3304 10.9273 35.1265 10.8238 34.9459 10.6915C34.7652 10.565 34.6196 10.3982 34.5147 10.1969C34.404 9.9956 34.3516 9.7483 34.3516 9.44923C34.3516 9.12716 34.4331 8.8626 34.5905 8.64406C34.7478 8.42551 34.9517 8.25297 35.1906 8.12069C35.4353 7.98841 35.7033 7.89639 36.0004 7.83888C36.2976 7.78712 36.583 7.75836 36.851 7.75836C37.1598 7.75836 37.457 7.79287 37.7366 7.85613C38.0163 7.9194 38.2727 8.02292 38.4999 8.17245C38.7271 8.31623 38.9135 8.50602 39.065 8.73607C39.2165 8.96613 39.3097 9.24794 39.3505 9.57576H37.9755C37.9114 9.26519 37.7716 9.05239 37.5444 8.94887C37.3172 8.8396 37.055 8.78784 36.7637 8.78784C36.6704 8.78784 36.5597 8.79359 36.4316 8.81084C36.3034 8.82809 36.1869 8.85685 36.0703 8.89711C35.9596 8.93737 35.8664 9.00063 35.7848 9.08115C35.7091 9.16167 35.6683 9.26519 35.6683 9.39747C35.6683 9.5585 35.7266 9.68503 35.8373 9.7828C35.948 9.88058 36.0936 9.96109 36.2742 10.0301C36.4549 10.0934 36.6588 10.1509 36.8918 10.1969C37.1249 10.2429 37.3638 10.2947 37.6085 10.3464C37.8473 10.3982 38.0804 10.4672 38.3134 10.542C38.5465 10.6167 38.7504 10.7203 38.931 10.8525C39.1116 10.9848 39.2573 11.1459 39.368 11.3414C39.4787 11.5369 39.537 11.7842 39.537 12.0718C39.537 12.4226 39.4554 12.7159 39.2923 12.9632C39.1291 13.2048 38.9194 13.4061 38.663 13.5556C38.4067 13.7052 38.1153 13.8202 37.8007 13.8892C37.4861 13.9582 37.1715 13.9927 36.8627 13.9927C36.484 13.9927 36.1344 13.9525 35.814 13.8662C35.4935 13.7799 35.2139 13.6534 34.9808 13.4866C34.7478 13.3141 34.5613 13.1013 34.4273 12.8482C34.2933 12.5952 34.2234 12.2904 34.2117 11.9395H35.5401V11.928ZM39.8865 7.9194H40.8828V6.14801H42.1996V7.9194H43.3881V8.89136H42.1996V12.043C42.1996 12.1811 42.2054 12.2961 42.217 12.3996C42.2287 12.4974 42.2578 12.5837 42.2986 12.6527C42.3394 12.7217 42.4035 12.7735 42.4909 12.808C42.5783 12.8425 42.689 12.8597 42.8405 12.8597C42.9337 12.8597 43.0269 12.8597 43.1201 12.854C43.2133 12.8482 43.3066 12.8367 43.3998 12.8137V13.8202C43.2541 13.8374 43.1085 13.8489 42.9745 13.8662C42.8346 13.8835 42.6948 13.8892 42.5491 13.8892C42.1996 13.8892 41.9199 13.8547 41.7102 13.7914C41.5004 13.7282 41.3315 13.6304 41.2149 13.5039C41.0926 13.3773 41.0168 13.2221 40.9702 13.0323C40.9294 12.8425 40.9003 12.6239 40.8945 12.3824V8.90286H39.8982V7.9194H39.8865ZM44.3203 7.9194H45.5671V8.71882H45.5905C45.7769 8.37375 46.0333 8.13219 46.3653 7.98266C46.6974 7.83313 47.0528 7.75836 47.4432 7.75836C47.9151 7.75836 48.323 7.83888 48.6726 8.00567C49.0221 8.1667 49.3134 8.391 49.5465 8.67856C49.7795 8.96613 49.9485 9.2997 50.065 9.67928C50.1816 10.0589 50.2398 10.4672 50.2398 10.8985C50.2398 11.2954 50.1874 11.6807 50.0825 12.0488C49.9776 12.4226 49.8203 12.7505 49.6106 13.038C49.4008 13.3256 49.1328 13.5499 48.8066 13.7224C48.4803 13.895 48.1016 13.9812 47.6588 13.9812C47.4665 13.9812 47.2742 13.964 47.082 13.9295C46.8897 13.895 46.7033 13.8374 46.5285 13.7627C46.3537 13.6879 46.1847 13.5901 46.0391 13.4694C45.8876 13.3486 45.7652 13.2106 45.6604 13.0553H45.6371V15.9999H44.3203V7.9194ZM48.9231 10.8755C48.9231 10.611 48.8881 10.3522 48.8182 10.0991C48.7483 9.84607 48.6434 9.62752 48.5036 9.43198C48.3638 9.23643 48.189 9.08115 47.9851 8.96613C47.7753 8.8511 47.5364 8.78784 47.2684 8.78784C46.7149 8.78784 46.2954 8.97763 46.0158 9.35721C45.7361 9.73679 45.5963 10.2429 45.5963 10.8755C45.5963 11.1746 45.6312 11.4507 45.707 11.7037C45.7827 11.9568 45.8876 12.1753 46.0391 12.3594C46.1847 12.5434 46.3595 12.6872 46.5634 12.7907C46.7674 12.9 47.0062 12.9517 47.2743 12.9517C47.5772 12.9517 47.8277 12.8885 48.0375 12.7677C48.2472 12.6469 48.4162 12.4859 48.5502 12.2961C48.6842 12.1006 48.7832 11.882 48.8415 11.6347C48.8939 11.3874 48.9231 11.1343 48.9231 10.8755ZM51.2478 5.67065H52.5645V6.90142H51.2478V5.67065ZM51.2478 7.9194H52.5645V13.8202H51.2478V7.9194ZM53.7414 5.67065H55.0581V13.8202H53.7414V5.67065ZM59.0957 13.9812C58.618 13.9812 58.1927 13.9007 57.8198 13.7454C57.4469 13.5901 57.1323 13.3716 56.8701 13.1013C56.6138 12.8252 56.4157 12.4974 56.2817 12.1178C56.1477 11.7382 56.0777 11.3184 56.0777 10.864C56.0777 10.4154 56.1477 10.0014 56.2817 9.62177C56.4157 9.24219 56.6138 8.91436 56.8701 8.6383C57.1265 8.36224 57.4469 8.14945 57.8198 7.99416C58.1927 7.83888 58.618 7.75836 59.0957 7.75836C59.5735 7.75836 59.9988 7.83888 60.3717 7.99416C60.7446 8.14945 61.0592 8.36799 61.3214 8.6383C61.5777 8.91436 61.7758 9.24219 61.9098 9.62177C62.0438 10.0014 62.1138 10.4154 62.1138 10.864C62.1138 11.3184 62.0438 11.7382 61.9098 12.1178C61.7758 12.4974 61.5777 12.8252 61.3214 13.1013C61.065 13.3773 60.7446 13.5901 60.3717 13.7454C59.9988 13.9007 59.5735 13.9812 59.0957 13.9812ZM59.0957 12.9517C59.3871 12.9517 59.6434 12.8885 59.859 12.7677C60.0746 12.6469 60.2494 12.4859 60.3892 12.2904C60.529 12.0948 60.6281 11.8705 60.698 11.6232C60.7621 11.3759 60.797 11.1228 60.797 10.864C60.797 10.611 60.7621 10.3637 60.698 10.1106C60.6339 9.85757 60.529 9.63902 60.3892 9.44348C60.2494 9.24794 60.0746 9.09265 59.859 8.97188C59.6434 8.8511 59.3871 8.78784 59.0957 8.78784C58.8044 8.78784 58.5481 8.8511 58.3325 8.97188C58.1169 9.09265 57.9422 9.25369 57.8023 9.44348C57.6625 9.63902 57.5634 9.85757 57.4935 10.1106C57.4294 10.3637 57.3945 10.611 57.3945 10.864C57.3945 11.1228 57.4294 11.3759 57.4935 11.6232C57.5576 11.8705 57.6625 12.0948 57.8023 12.2904C57.9422 12.4859 58.1169 12.6469 58.3325 12.7677C58.5481 12.8942 58.8044 12.9517 59.0957 12.9517ZM62.4983 7.9194H63.4946V6.14801H64.8113V7.9194H65.9999V8.89136H64.8113V12.043C64.8113 12.1811 64.8171 12.2961 64.8288 12.3996C64.8405 12.4974 64.8696 12.5837 64.9104 12.6527C64.9512 12.7217 65.0152 12.7735 65.1026 12.808C65.19 12.8425 65.3007 12.8597 65.4522 12.8597C65.5454 12.8597 65.6387 12.8597 65.7319 12.854C65.8251 12.8482 65.9183 12.8367 66.0115 12.8137V13.8202C65.8659 13.8374 65.7202 13.8489 65.5862 13.8662C65.4464 13.8835 65.3066 13.8892 65.1609 13.8892C64.8113 13.8892 64.5317 13.8547 64.3219 13.7914C64.1122 13.7282 63.9432 13.6304 63.8267 13.5039C63.7043 13.3773 63.6286 13.2221 63.582 13.0323C63.5412 12.8425 63.5121 12.6239 63.5062 12.3824V8.90286H62.5099V7.9194H62.4983Z" fill="white"/>
<path d="M15.8067 5.67074H9.77066L7.90625 0L6.03602 5.67074L0 5.66499L4.88824 9.17326L3.01801 14.8382L7.90625 11.3357L12.7887 14.8382L10.9243 9.17326L15.8067 5.67074Z" fill="#00B67A"/>
<path d="M11.3438 10.4559L10.9243 9.17334L7.90625 11.3358L11.3438 10.4559Z" fill="#005128"/>
</g>
<defs>
<clipPath id="clip0">
<rect width="66" height="16" fill="white"/>
</clipPath>
</defs>
</svg>
