<svg width="48" height="48" viewBox="0 0 48 48" fill="none" xmlns="http://www.w3.org/2000/svg">
<path d="M0 24C0 10.7452 10.7452 0 24 0C37.2548 0 48 10.7452 48 24C48 37.2548 37.2548 48 24 48C10.7452 48 0 37.2548 0 24Z" fill="#FFD9DF"/>
<path fill-rule="evenodd" clip-rule="evenodd" d="M24.3505 17.4401C26.3294 15.5197 29.5373 15.52 31.5159 17.4408C32.5585 18.4531 33.0517 19.7985 32.9957 21.1223C32.9845 24.2164 30.6936 26.901 28.6817 28.6942C27.6424 29.6206 26.6076 30.3704 25.8348 30.8881C25.4475 31.1474 25.1233 31.3502 24.8942 31.4891C24.7796 31.5587 24.6885 31.6123 24.6249 31.6493C24.5931 31.6677 24.5682 31.6821 24.5506 31.6921L24.5297 31.7039L24.5236 31.7074L24.5216 31.7085C24.5216 31.7085 24.5203 31.7092 24 30.8318C23.4797 31.7092 23.4791 31.7089 23.4791 31.7089L23.4764 31.7074L23.4702 31.7039L23.4494 31.6921C23.4318 31.6821 23.4069 31.6677 23.3751 31.6493C23.3115 31.6123 23.2204 31.5587 23.1058 31.4891C22.8766 31.3502 22.5526 31.1474 22.1651 30.8881C21.3923 30.3704 20.3576 29.6206 19.3183 28.6942C17.3064 26.901 15.0155 24.2165 15.0043 21.1223C14.9482 19.7985 15.4414 18.4531 16.4841 17.4408C18.463 15.5197 21.6714 15.5197 23.6503 17.4408L23.9993 17.7797L24.3497 17.4408L24.3505 17.4401ZM24 30.8318L23.4791 31.7089L24 32L24.5203 31.7092L24 30.8318ZM24 29.6422C24.1802 29.5298 24.4005 29.3887 24.6504 29.2213C25.3688 28.7402 26.3222 28.0484 27.2711 27.2027C29.2308 25.4559 30.91 23.2831 30.91 21.0995V21.0762L30.9111 21.0531C30.9483 20.2664 30.6581 19.4717 30.041 18.8726C28.8767 17.7423 26.9889 17.7422 25.8246 18.8726L25.8231 18.874L23.9964 20.6404L22.1755 18.8726C21.0111 17.7423 19.1233 17.7423 17.959 18.8726C17.3418 19.4717 17.0517 20.2664 17.0889 21.0531L17.09 21.0762V21.0995C17.09 23.2831 18.7692 25.4559 20.7289 27.2027C21.6777 28.0484 22.6312 28.7402 23.3495 29.2213C23.5995 29.3887 23.8197 29.5298 24 29.6422Z" fill="#7D0B0E"/>
</svg>
